# xmcd
#
# Track frame offsets: 
#        150
#        11212
#        19062
#        28137
#        37305
#        47452
#        58822
#        68660
#        81147
#        89617
#        100685
#        112365
#
# Disc length: 1613 seconds
#
# Revision: 0
# Processed by: cddbd v1.5.1PL0 Copyright (c) Steve Scherf et al.
# Submitted via: ExactAudioCopy v0.95a5
#
DISCID=a4064b0c
DTITLE=Roger Miller - The Best of Roger Miller, Platinum and Gold Coll
DTITLE=ection
DYEAR=2004
DGENRE=Country
TTITLE0=King Of The Road
TTITLE1=Dang Me
TTITLE2=Chug-A-Lug
TTITLE3=You Don't Want My Love
TTITLE4=When Two Worlds Collide
TTITLE5=Lock, Stock, And Teardrops
TTITLE6=Every Which-A-Way
TTITLE7=Hitch-Hiker
TTITLE8=Burma Shave
TTITLE9=Sorry, Willie
TTITLE10=Footprints In The Snow
TTITLE11=Trouble On The Turnpike
EXTD=
EXTT0=
EXTT1=
EXTT2=
EXTT3=
EXTT4=
EXTT5=
EXTT6=
EXTT7=
EXTT8=
EXTT9=
EXTT10=
EXTT11=
PLAYORDER=
